<svg xmlns="http://www.w3.org/2000/svg" fill="none" viewBox="-0.625 -0.625 24 24" id="Office-Employee--Streamline-Ultimate.svg"><desc>Office Employee Streamline Icon: https://streamlinehq.com</desc><path stroke="#ffcf68" stroke-linecap="round" stroke-linejoin="round" d="M16.99709375 22.039157291666665H5.752896770833334l-1.4616875 -6.60603125c-0.0321628125 -0.14323020833333333 -0.03479802083333333 -0.2913895833333333 -0.007744479166666667 -0.4356625s0.08322708333333333 -0.2814364583333333 0.1650986458333333 -0.40324375c0.07425979166666667 -0.114034375 0.1752603125 -0.20816249999999997 0.2942048958333333 -0.2742322916666667 0.11895406249999999 -0.06606979166666667 0.25225010416666666 -0.102090625 0.3882951041666666 -0.104934375H17.618927083333332c0.13602604166666665 0.00284375 0.26930312500000003 0.038864583333333334 0.38826666666666665 0.104934375 0.11896354166666666 0.06606979166666667 0.21991666666666668 0.16019791666666666 0.29423333333333335 0.2742322916666667 0.08180520833333334 0.12180729166666666 0.13801666666666668 0.2589708333333333 0.1651270833333333 0.40324375 0.027015625 0.14427291666666667 0.024361458333333332 0.2924322916666667 -0.007772916666666667 0.4356625l-1.4616875 6.60603125Z" stroke-width="1.25"></path><path stroke="#ffcf68" stroke-linecap="round" stroke-linejoin="round" d="M0.7109375 22.0390625h21.328125" stroke-width="1.25"></path><path stroke="#ffcf68" stroke-linecap="round" stroke-linejoin="round" d="M9.953125 17.7734375c0 0.37708125 0.14977083333333333 0.73880625 0.41641979166666665 1.0054552083333332s0.6283739583333333 0.41641979166666665 1.0054552083333332 0.41641979166666665c0.37708125 0 0.73880625 -0.14977083333333333 1.0054552083333332 -0.41641979166666665s0.41641979166666665 -0.6283739583333333 0.41641979166666665 -1.0054552083333332c0 -0.37708125 -0.14977083333333333 -0.73880625 -0.41641979166666665 -1.0054552083333332S11.75208125 16.3515625 11.375 16.3515625c-0.37708125 0 -0.73880625 0.14977083333333333 -1.0054552083333332 0.41641979166666665S9.953125 17.39635625 9.953125 17.7734375Z" stroke-width="1.25"></path><path stroke="#ffcf68" stroke-linecap="round" stroke-linejoin="round" d="M8.005165729166666 2.6359287499999997c0.605605 0.6279 1.3315575 1.1272814583333333 2.1345092708333335 1.4683229166666665 0.8028854166666666 0.3410509375 1.6663427083333333 0.5167472916666666 2.5387104166666665 0.5166145833333333 0.8843114583333332 0.0006161458333333332 1.7594281250000001 -0.17937427083333332 2.5716979166666665 -0.5289375000000001" stroke-width="1.25"></path><path stroke="#ffcf68" stroke-linecap="round" stroke-linejoin="round" d="M7.46484375 4.62109375c0 1.0370397916666667 0.4119645833333333 2.0316034375 1.1452539583333332 2.7649022916666666C9.343396562499999 8.119285416666667 10.337979166666667 8.53125 11.375 8.53125c1.0370208333333333 0 2.031575 -0.4119645833333333 2.764883333333333 -1.1452539583333332 0.7333083333333332 -0.7332988541666666 1.1452729166666666 -1.7278624999999999 1.1452729166666666 -2.7649022916666666s-0.4119645833333333 -2.0316034375 -1.1452729166666666 -2.7649022916666666C13.406575 1.1229020833333334 12.412020833333333 0.7109375 11.375 0.7109375c-1.0370208333333333 0 -2.0316034375 0.4119645833333333 -2.7649022916666666 1.1452539583333332C7.876808333333333 2.5894903124999997 7.46484375 3.584053958333333 7.46484375 4.62109375Z" stroke-width="1.25"></path><path stroke="#ffcf68" stroke-linecap="round" stroke-linejoin="round" d="M16.114583333333332 12.085842708333333c-0.5937749999999999 -0.6712197916666666 -1.3233864583333332 -1.20859375 -2.140490625 -1.5766697916666665 -0.8170093749999999 -0.36807604166666663 -1.7029322916666665 -0.5583229166666667 -2.599092708333333 -0.5583229166666667 -0.8961604166666667 0 -1.7820833333333332 0.19024687499999998 -2.599130625 0.5583229166666667 -0.8170662499999999 0.36807604166666663 -1.5466492708333333 0.90545 -2.140452708333333 1.5766697916666665" stroke-width="1.25"></path></svg>