<svg xmlns="http://www.w3.org/2000/svg" fill="none" viewBox="-0.625 -0.625 24 24" id="Video-Edit-Magic-Wand--Streamline-Ultimate.svg"><desc>Video Edit Magic Wand Streamline Icon: https://streamlinehq.com</desc><path stroke="#ffcf68" stroke-linecap="round" stroke-linejoin="round" d="m16.80561458333333 22.03925208333333 4.42771875 -8.30659375c0.048628124999999994 -0.09090520833333333 0.07886666666666665 -0.1904364583333333 0.08900937499999999 -0.29300104166666663 0.010047916666666667 -0.10256458333333333 -0.00009479166666666666 -0.20607708333333333 -0.03004895833333333 -0.30466041666666666 -0.029954166666666667 -0.09867812499999999 -0.07905625 -0.19034166666666666 -0.1444625 -0.26996666666666663 -0.06540625 -0.079625 -0.145884375 -0.14559999999999998 -0.23678958333333333 -0.19403854166666665l-1.3839583333333332 -0.7384270833333333c-0.18370625 -0.09763541666666666 -0.39869374999999996 -0.11848958333333333 -0.5976614583333333 -0.05782291666666666 -0.19906249999999998 0.060571875 -0.3658958333333333 0.19754583333333334 -0.4640052083333333 0.3810625l-5.213541666666666 9.783447916666667" stroke-width="1.25"></path><path stroke="#ffcf68" stroke-linecap="round" stroke-linejoin="round" d="m19.759228125 16.501428125 -2.7687697916666667 -1.4768541666666666" stroke-width="1.25"></path><path stroke="#ffcf68" stroke-linecap="round" stroke-linejoin="round" d="M13.5078125 11.375v2.84375" stroke-width="1.25"></path><path stroke="#ffcf68" stroke-linecap="round" stroke-linejoin="round" d="M14.9296875 12.796875h-2.84375" stroke-width="1.25"></path><path stroke="#ffcf68" stroke-linecap="round" stroke-linejoin="round" d="M20.6171875 5.6875v2.84375" stroke-width="1.25"></path><path stroke="#ffcf68" stroke-linecap="round" stroke-linejoin="round" d="M22.0390625 7.109375h-2.84375" stroke-width="1.25"></path><path stroke="#ffcf68" stroke-linecap="round" stroke-linejoin="round" d="M0.7109375 4.9765625h4.265625" stroke-width="1.25"></path><path stroke="#ffcf68" stroke-linecap="round" stroke-linejoin="round" d="M17.7734375 4.9765625h-4.265625" stroke-width="1.25"></path><path stroke="#ffcf68" stroke-linecap="round" stroke-linejoin="round" d="M9.2421875 22.0390625h-7.109375c-0.3771002083333333 0 -0.7387683333333334 -0.14977083333333333 -1.0054172916666666 -0.41641979166666665C0.8607415104166667 21.35599375 0.7109375 20.99426875 0.7109375 20.6171875V2.1328125c0 -0.3771002083333333 0.14980401041666666 -0.7387683333333334 0.41645770833333334 -1.0054172916666666C1.3940441666666665 0.8607415104166667 1.7557122916666665 0.7109375 2.1328125 0.7109375h14.21875c0.37708125 0 0.73880625 0.14980401041666666 1.0054552083333332 0.41645770833333334 0.2666489583333333 0.2666489583333333 0.41641979166666665 0.6283170833333332 0.41641979166666665 1.0054172916666666v2.84375" stroke-width="1.25"></path><path stroke="#ffcf68" stroke-linecap="round" stroke-linejoin="round" d="M4.9765625 22.0390625v-8.53125" stroke-width="1.25"></path><path stroke="#ffcf68" stroke-linecap="round" stroke-linejoin="round" d="M13.5078125 9.2421875v-8.53125" stroke-width="1.25"></path><path stroke="#ffcf68" stroke-linecap="round" stroke-linejoin="round" d="M4.9765625 9.2421875v-8.53125" stroke-width="1.25"></path><path stroke="#ffcf68" stroke-linecap="round" stroke-linejoin="round" d="M0.7109375 17.7734375h4.265625" stroke-width="1.25"></path><path stroke="#ffcf68" stroke-linecap="round" stroke-linejoin="round" d="M0.7109375 13.5078125h8.53125" stroke-width="1.25"></path><path stroke="#ffcf68" stroke-linecap="round" stroke-linejoin="round" d="M0.7109375 9.2421875h17.0625" stroke-width="1.25"></path></svg>