<svg xmlns="http://www.w3.org/2000/svg" width="430" height="430" fill="none" viewBox="0 0 430 430"><g stroke="#ffce1c" stroke-linecap="round" stroke-linejoin="round" stroke-width="12"><path d="M334.791 376.21h-223.33c-12.02 0-21.77-9.74-21.77-21.77V214.45h266.87v139.99c0 12.02-9.75 21.77-21.77 21.77m-245.1-107.75h266.87m-242.1-.48 18.26-53.05m31.771 53.05 18.26-53.05m31.779 53.05 18.26-53.05m31.779 53.05 18.26-53.05m31.779 53.05 18.26-53.05"/><path d="M209.781 298.69v53.37l39.68-26.69zm117.36-206.01L89.681 214.45 75.4 186.61c-5.49-10.7-1.26-23.81 9.44-29.3L283.57 55.4c10.7-5.49 23.82-1.26 29.3 9.44zM87.512 155.94l40.46 38.88m4.059-61.71 40.46 38.87m4.071-61.7 40.461 38.87m4.059-61.71 40.46 38.87m4.067-61.7 40.46 38.88"/></g></svg>