<?xml version="1.0" encoding="UTF-8"?>
<svg id="Layer_1" data-name="Layer 1" xmlns="http://www.w3.org/2000/svg" viewBox="0 0 1000 350">
  <defs>
    <style>
      .cls-1 {
        fill: #fff;
      }

      .cls-2 {
        fill: #faf4e6;
      }

      .cls-3 {
        fill: #ff7b69;
      }

      .cls-4 {
        fill: #c94836;
      }

      .cls-5 {
        fill: #d8c4b9;
      }

      .cls-6 {
        fill: #3aaec9;
      }

      .cls-7 {
        fill: #320a00;
      }

      .cls-8 {
        fill: #e6563b;
      }

      .cls-9 {
        fill: #aa9387;
      }
    </style>
  </defs>
  <path class="cls-6" d="M104.36,34.06H895.64c6.77,0,11.31,6.98,8.53,13.16-25,55.64-138,268.73-402.11,268.73S123.62,103.61,95.97,47.52c-3.06-6.2,1.47-13.46,8.39-13.46Z"/>
  <g>
    <g>
      <g>
        <g>
          <polygon class="cls-5" points="779.04 83.64 637.95 83.64 637.95 154.72 779.04 154.72 757.23 119.18 779.04 83.64"/>
          <path class="cls-7" d="M779.04,156.15h-141.09c-.79,0-1.43-.64-1.43-1.43V83.64c0-.79,.64-1.43,1.43-1.43h141.09c.52,0,1,.28,1.25,.73,.25,.45,.24,1.01-.03,1.45l-21.35,34.79,21.35,34.79c.27,.44,.28,1,.03,1.45-.25,.45-.73,.73-1.25,.73Zm-139.66-2.86h137.1l-20.47-33.36c-.28-.46-.28-1.04,0-1.5l20.47-33.36h-137.1v68.22Z"/>
        </g>
        <g>
          <polygon class="cls-5" points="220.39 83.64 361.48 83.64 361.48 154.72 220.39 154.72 242.2 119.18 220.39 83.64"/>
          <path class="cls-7" d="M361.48,156.15H220.39c-.52,0-1-.28-1.25-.73-.25-.45-.24-1.01,.03-1.45l21.35-34.79-21.35-34.79c-.27-.44-.28-1-.03-1.45,.25-.45,.73-.73,1.25-.73h141.09c.79,0,1.43,.64,1.43,1.43v71.08c0,.79-.64,1.43-1.43,1.43Zm-138.53-2.86h137.1V85.07H222.95l20.47,33.36c.28,.46,.28,1.04,0,1.5l-20.47,33.36Z"/>
        </g>
        <g>
          <g>
            <polygon class="cls-7" points="355.37 150.86 262.61 151.05 355.36 149.91 355.37 150.86 355.37 150.86"/>
            <polygon class="cls-7" points="355.37 147.57 269.7 147.62 355.36 146.62 355.37 147.57 355.37 147.57"/>
            <polygon class="cls-7" points="355.37 144.28 265.03 144.42 355.36 143.33 355.37 144.28 355.37 144.28"/>
            <polygon class="cls-7" points="355.37 140.99 258.97 141.25 355.36 140.04 355.37 140.99 355.37 140.99"/>
            <polygon class="cls-7" points="355.37 137.7 262.61 137.89 355.36 136.75 355.37 137.7 355.37 137.7"/>
            <polygon class="cls-7" points="355.37 134.42 269.7 134.47 355.36 133.46 355.37 134.42 355.37 134.42"/>
            <polygon class="cls-7" points="355.37 131.13 265.03 131.26 355.36 130.17 355.37 131.13 355.37 131.13"/>
            <polygon class="cls-7" points="355.37 127.84 258.97 128.09 355.36 126.88 355.37 127.84 355.37 127.84"/>
            <polygon class="cls-7" points="355.37 124.55 262.61 124.73 355.36 123.59 355.37 124.55 355.37 124.55"/>
            <polygon class="cls-7" points="355.37 121.26 269.7 121.31 355.36 120.3 355.37 121.26 355.37 121.26"/>
            <polygon class="cls-7" points="355.37 117.97 265.03 118.11 355.36 117.01 355.37 117.97 355.37 117.97"/>
            <polygon class="cls-7" points="355.37 114.68 258.97 114.93 355.36 113.72 355.37 114.68 355.37 114.68"/>
            <polygon class="cls-7" points="355.37 111.18 262.61 111.37 355.36 110.23 355.37 111.18 355.37 111.18"/>
            <polygon class="cls-7" points="355.37 107.89 269.7 107.94 355.36 106.94 355.37 107.89 355.37 107.89"/>
            <polygon class="cls-7" points="355.37 104.6 265.03 104.74 355.36 103.65 355.37 104.6 355.37 104.6"/>
            <polygon class="cls-7" points="355.37 101.31 258.97 101.57 355.36 100.36 355.37 101.31 355.37 101.31"/>
            <polygon class="cls-7" points="355.37 98.02 262.61 98.21 355.36 97.07 355.37 98.02 355.37 98.02"/>
            <polygon class="cls-7" points="355.37 94.73 269.7 94.79 355.36 93.78 355.37 94.73 355.37 94.73"/>
            <polygon class="cls-7" points="355.37 91.44 265.03 91.58 355.36 90.49 355.37 91.44 355.37 91.44"/>
            <polygon class="cls-7" points="355.37 88.15 258.97 88.41 355.36 87.2 355.37 88.15 355.37 88.15"/>
            <polygon class="cls-7" points="355.37 84.87 262.61 85.05 355.36 83.91 355.37 84.87 355.37 84.87"/>
          </g>
          <g>
            <polygon class="cls-7" points="355.37 152.79 257.51 152.64 355.36 151.83 355.37 152.79 355.37 152.79"/>
            <polygon class="cls-7" points="355.37 149.5 265.63 149.28 355.36 148.54 355.37 149.5 355.37 149.5"/>
            <polygon class="cls-7" points="355.37 146.21 260.28 146.04 355.36 145.25 355.37 146.21 355.37 146.21"/>
            <polygon class="cls-7" points="355.37 142.92 253.35 142.8 355.36 141.96 355.37 142.92 355.37 142.92"/>
            <polygon class="cls-7" points="355.37 139.63 257.51 139.48 355.36 138.67 355.37 139.63 355.37 139.63"/>
            <polygon class="cls-7" points="355.37 136.34 265.63 136.12 355.36 135.38 355.37 136.34 355.37 136.34"/>
            <polygon class="cls-7" points="355.37 133.05 260.28 132.88 355.36 132.09 355.37 133.05 355.37 133.05"/>
            <polygon class="cls-7" points="355.37 129.76 253.35 129.64 355.36 128.8 355.37 129.76 355.37 129.76"/>
            <polygon class="cls-7" points="355.37 126.47 257.51 126.32 355.36 125.51 355.37 126.47 355.37 126.47"/>
            <polygon class="cls-7" points="355.37 123.18 265.63 122.96 355.36 122.22 355.37 123.18 355.37 123.18"/>
            <polygon class="cls-7" points="355.37 119.89 260.28 119.72 355.36 118.93 355.37 119.89 355.37 119.89"/>
            <polygon class="cls-7" points="355.37 116.6 253.35 116.48 355.36 115.64 355.37 116.6 355.37 116.6"/>
            <polygon class="cls-7" points="355.37 113.1 257.51 112.96 355.36 112.15 355.37 113.1 355.37 113.1"/>
            <polygon class="cls-7" points="355.37 109.81 265.63 109.6 355.36 108.86 355.37 109.81 355.37 109.81"/>
            <polygon class="cls-7" points="355.37 106.53 260.28 106.35 355.36 105.57 355.37 106.53 355.37 106.53"/>
            <polygon class="cls-7" points="355.37 103.24 253.35 103.12 355.36 102.28 355.37 103.24 355.37 103.24"/>
            <polygon class="cls-7" points="355.37 99.95 257.51 99.8 355.36 98.99 355.37 99.95 355.37 99.95"/>
            <polygon class="cls-7" points="355.37 96.66 265.63 96.44 355.36 95.7 355.37 96.66 355.37 96.66"/>
            <polygon class="cls-7" points="355.37 93.37 260.28 93.2 355.36 92.41 355.37 93.37 355.37 93.37"/>
            <polygon class="cls-7" points="355.37 90.08 253.35 89.96 355.36 89.12 355.37 90.08 355.37 90.08"/>
            <polygon class="cls-7" points="355.37 86.79 257.51 86.64 355.36 85.83 355.37 86.79 355.37 86.79"/>
          </g>
        </g>
        <g>
          <g>
            <polygon class="cls-7" points="644.56 86.16 737.32 85.98 644.56 87.12 644.56 86.16 644.56 86.16"/>
            <polygon class="cls-7" points="644.56 89.45 730.23 89.4 644.56 90.41 644.56 89.45 644.56 89.45"/>
            <polygon class="cls-7" points="644.56 92.74 734.89 92.6 644.56 93.7 644.56 92.74 644.56 92.74"/>
            <polygon class="cls-7" points="644.55 96.03 740.95 95.78 644.56 96.99 644.55 96.03 644.55 96.03"/>
            <polygon class="cls-7" points="644.56 99.32 737.32 99.14 644.56 100.28 644.56 99.32 644.56 99.32"/>
            <polygon class="cls-7" points="644.56 102.61 730.23 102.56 644.56 103.57 644.56 102.61 644.56 102.61"/>
            <polygon class="cls-7" points="644.56 105.9 734.89 105.76 644.56 106.85 644.56 105.9 644.56 105.9"/>
            <polygon class="cls-7" points="644.55 109.19 740.95 108.94 644.56 110.14 644.55 109.19 644.55 109.19"/>
            <polygon class="cls-7" points="644.56 112.48 737.32 112.3 644.56 113.43 644.56 112.48 644.56 112.48"/>
            <polygon class="cls-7" points="644.56 115.77 730.23 115.72 644.56 116.72 644.56 115.77 644.56 115.77"/>
            <polygon class="cls-7" points="644.56 119.06 734.89 118.92 644.56 120.01 644.56 119.06 644.56 119.06"/>
            <polygon class="cls-7" points="644.55 122.35 740.95 122.1 644.56 123.3 644.55 122.35 644.55 122.35"/>
            <polygon class="cls-7" points="644.56 125.84 737.32 125.66 644.56 126.8 644.56 125.84 644.56 125.84"/>
            <polygon class="cls-7" points="644.56 129.13 730.23 129.08 644.56 130.09 644.56 129.13 644.56 129.13"/>
            <polygon class="cls-7" points="644.56 132.42 734.89 132.28 644.56 133.38 644.56 132.42 644.56 132.42"/>
            <polygon class="cls-7" points="644.55 135.71 740.95 135.46 644.56 136.67 644.55 135.71 644.55 135.71"/>
            <polygon class="cls-7" points="644.56 139 737.32 138.82 644.56 139.96 644.56 139 644.56 139"/>
            <polygon class="cls-7" points="644.56 142.29 730.23 142.24 644.56 143.25 644.56 142.29 644.56 142.29"/>
            <polygon class="cls-7" points="644.56 145.58 734.89 145.44 644.56 146.54 644.56 145.58 644.56 145.58"/>
            <polygon class="cls-7" points="644.55 148.87 740.95 148.62 644.56 149.83 644.55 148.87 644.55 148.87"/>
            <polygon class="cls-7" points="644.56 152.16 737.32 151.98 644.56 153.12 644.56 152.16 644.56 152.16"/>
          </g>
          <g>
            <polygon class="cls-7" points="644.56 84.24 742.41 84.39 644.56 85.19 644.56 84.24 644.56 84.24"/>
            <polygon class="cls-7" points="644.56 87.53 734.29 87.74 644.56 88.48 644.56 87.53 644.56 87.53"/>
            <polygon class="cls-7" points="644.56 90.82 739.64 90.99 644.56 91.77 644.56 90.82 644.56 90.82"/>
            <polygon class="cls-7" points="644.56 94.11 746.58 94.22 644.56 95.06 644.56 94.11 644.56 94.11"/>
            <polygon class="cls-7" points="644.56 97.4 742.41 97.55 644.56 98.35 644.56 97.4 644.56 97.4"/>
            <polygon class="cls-7" points="644.56 100.69 734.29 100.9 644.56 101.64 644.56 100.69 644.56 100.69"/>
            <polygon class="cls-7" points="644.56 103.98 739.64 104.15 644.56 104.93 644.56 103.98 644.56 103.98"/>
            <polygon class="cls-7" points="644.56 107.27 746.58 107.38 644.56 108.22 644.56 107.27 644.56 107.27"/>
            <polygon class="cls-7" points="644.56 110.56 742.41 110.71 644.56 111.51 644.56 110.56 644.56 110.56"/>
            <polygon class="cls-7" points="644.56 113.85 734.29 114.06 644.56 114.8 644.56 113.85 644.56 113.85"/>
            <polygon class="cls-7" points="644.56 117.14 739.64 117.31 644.56 118.09 644.56 117.14 644.56 117.14"/>
            <polygon class="cls-7" points="644.56 120.43 746.58 120.54 644.56 121.38 644.56 120.43 644.56 120.43"/>
            <polygon class="cls-7" points="644.56 123.92 742.41 124.07 644.56 124.88 644.56 123.92 644.56 123.92"/>
            <polygon class="cls-7" points="644.56 127.21 734.29 127.43 644.56 128.17 644.56 127.21 644.56 127.21"/>
            <polygon class="cls-7" points="644.56 130.5 739.64 130.67 644.56 131.46 644.56 130.5 644.56 130.5"/>
            <polygon class="cls-7" points="644.56 133.79 746.58 133.9 644.56 134.74 644.56 133.79 644.56 133.79"/>
            <polygon class="cls-7" points="644.56 137.08 742.41 137.23 644.56 138.03 644.56 137.08 644.56 137.08"/>
            <polygon class="cls-7" points="644.56 140.37 734.29 140.58 644.56 141.32 644.56 140.37 644.56 140.37"/>
            <polygon class="cls-7" points="644.56 143.66 739.64 143.83 644.56 144.61 644.56 143.66 644.56 143.66"/>
            <polygon class="cls-7" points="644.56 146.95 746.58 147.06 644.56 147.9 644.56 146.95 644.56 146.95"/>
            <polygon class="cls-7" points="644.56 150.24 742.41 150.39 644.56 151.19 644.56 150.24 644.56 150.24"/>
          </g>
        </g>
        <g>
          <polyline class="cls-9" points="361.13 134.72 361.48 154.73 285.98 137.27"/>
          <path class="cls-7" d="M361.48,156.16c-.11,0-.22-.01-.32-.04l-75.5-17.45,.64-2.79,73.72,17.04-.32-18.17,2.86-.05,.35,20c0,.44-.19,.86-.53,1.14-.26,.21-.58,.32-.9,.32Z"/>
        </g>
        <g>
          <polyline class="cls-9" points="638.29 134.72 637.95 154.73 713.45 137.27"/>
          <path class="cls-7" d="M637.95,156.16c-.32,0-.64-.11-.9-.32-.34-.28-.54-.7-.53-1.14l.35-20,2.86,.05-.31,18.17,73.72-17.04,.64,2.79-75.5,17.45c-.11,.02-.22,.04-.32,.04Z"/>
        </g>
        <g>
          <path class="cls-2" d="M285.98,66.51v70.76c141.12-5.85,283.62-5.79,427.47,0V66.51c-143.62-10.2-286.13-10.46-427.47,0Z"/>
          <path class="cls-7" d="M285.98,138.7c-.37,0-.72-.14-.99-.4-.28-.27-.44-.64-.44-1.03V66.51c0-.75,.58-1.37,1.33-1.43,138.96-10.29,282.85-10.29,427.67,0,.75,.05,1.33,.68,1.33,1.43v70.76c0,.39-.16,.76-.44,1.03-.28,.27-.67,.42-1.05,.4-143.86-5.79-287.64-5.79-427.35,0-.02,0-.04,0-.06,0Zm212.18-7.2c70.94,0,142.38,1.43,213.85,4.28V67.85c-143.78-10.15-286.61-10.15-424.6,0v67.94c69.41-2.85,139.82-4.28,210.75-4.28Z"/>
        </g>
        <g>
          <polygon class="cls-7" points="353.55 134.04 285.9 123.53 286.06 122.59 353.55 134.04 353.55 134.04"/>
          <polygon class="cls-7" points="353.55 135.08 285.9 124.24 286.06 123.3 353.55 135.08 353.55 135.08"/>
          <polygon class="cls-7" points="353.55 136.11 285.9 124.95 286.06 124.01 353.55 136.11 353.55 136.11"/>
          <polygon class="cls-7" points="353.55 137.14 285.9 125.66 286.06 124.72 353.55 137.14 353.55 137.14"/>
          <polygon class="cls-7" points="353.55 138.18 285.89 126.37 286.06 125.43 353.55 138.18 353.55 138.18"/>
          <polygon class="cls-7" points="353.55 139.21 285.89 127.08 286.07 126.14 353.55 139.21 353.55 139.21"/>
          <polygon class="cls-7" points="353.55 140.25 285.89 127.79 286.07 126.85 353.55 140.25 353.55 140.25"/>
          <polygon class="cls-7" points="353.55 141.28 285.89 128.5 286.07 127.57 353.55 141.28 353.55 141.28"/>
          <polygon class="cls-7" points="353.55 142.31 285.88 129.21 286.07 128.28 353.55 142.31 353.55 142.31"/>
          <polygon class="cls-7" points="353.55 143.35 285.88 129.92 286.07 128.99 353.55 143.35 353.55 143.35"/>
          <polygon class="cls-7" points="353.55 144.38 285.88 130.63 286.08 129.7 353.55 144.38 353.55 144.38"/>
          <polygon class="cls-7" points="353.55 145.42 285.88 131.34 286.08 130.41 353.55 145.42 353.55 145.42"/>
          <polygon class="cls-7" points="353.55 146.45 285.87 132.05 286.08 131.12 353.55 146.45 353.55 146.45"/>
          <polygon class="cls-7" points="353.55 147.48 285.87 132.76 286.08 131.83 353.55 147.48 353.55 147.48"/>
          <polygon class="cls-7" points="353.55 148.52 285.87 133.47 286.08 132.54 353.55 148.52 353.55 148.52"/>
          <polygon class="cls-7" points="353.55 149.55 285.87 134.18 286.08 133.26 353.55 149.55 353.55 149.55"/>
          <polygon class="cls-7" points="353.55 150.59 285.87 134.89 286.09 133.97 353.55 150.59 353.55 150.59"/>
          <polygon class="cls-7" points="353.55 151.62 285.86 135.61 286.09 134.68 353.55 151.62 353.55 151.62"/>
          <polygon class="cls-7" points="353.55 152.65 285.86 136.32 286.09 135.39 353.55 152.65 353.55 152.65"/>
          <polygon class="cls-7" points="353.55 153.69 285.86 137.03 286.09 136.1 353.55 153.69 353.55 153.69"/>
          <polygon class="cls-7" points="353.55 154.72 285.86 137.74 286.09 136.81 353.55 154.72 353.55 154.72"/>
        </g>
        <g>
          <polygon class="cls-7" points="647 134.04 714.5 122.59 714.65 123.53 647 134.04 647 134.04"/>
          <polygon class="cls-7" points="647 135.08 714.49 123.3 714.65 124.24 647 135.08 647 135.08"/>
          <polygon class="cls-7" points="647 136.11 714.49 124.01 714.65 124.95 647 136.11 647 136.11"/>
          <polygon class="cls-7" points="647 137.14 714.49 124.72 714.66 125.66 647 137.14 647 137.14"/>
          <polygon class="cls-7" points="647 138.18 714.49 125.43 714.66 126.37 647 138.18 647 138.18"/>
          <polygon class="cls-7" points="647 139.21 714.49 126.14 714.66 127.08 647 139.21 647 139.21"/>
          <polygon class="cls-7" points="647 140.25 714.48 126.85 714.66 127.79 647 140.25 647 140.25"/>
          <polygon class="cls-7" points="647 141.28 714.48 127.57 714.66 128.5 647 141.28 647 141.28"/>
          <polygon class="cls-7" points="647 142.31 714.48 128.28 714.67 129.21 647 142.31 647 142.31"/>
          <polygon class="cls-7" points="647 143.35 714.48 128.99 714.67 129.92 647 143.35 647 143.35"/>
          <polygon class="cls-7" points="647 144.38 714.48 129.7 714.67 130.63 647 144.38 647 144.38"/>
          <polygon class="cls-7" points="647 145.42 714.47 130.41 714.67 131.34 647 145.42 647 145.42"/>
          <polygon class="cls-7" points="647 146.45 714.47 131.12 714.68 132.05 647 146.45 647 146.45"/>
          <polygon class="cls-7" points="647 147.48 714.47 131.83 714.68 132.76 647 147.48 647 147.48"/>
          <polygon class="cls-7" points="647 148.52 714.47 132.54 714.68 133.47 647 148.52 647 148.52"/>
          <polygon class="cls-7" points="647 149.55 714.47 133.26 714.68 134.18 647 149.55 647 149.55"/>
          <polygon class="cls-7" points="647 150.59 714.46 133.97 714.69 134.89 647 150.59 647 150.59"/>
          <polygon class="cls-7" points="647 151.62 714.46 134.68 714.69 135.61 647 151.62 647 151.62"/>
          <polygon class="cls-7" points="647 152.65 714.46 135.39 714.69 136.32 647 152.65 647 152.65"/>
          <polygon class="cls-7" points="647 153.69 714.46 136.1 714.69 137.03 647 153.69 647 153.69"/>
          <polygon class="cls-7" points="647 154.72 714.46 136.81 714.7 137.74 647 154.72 647 154.72"/>
        </g>
        <g>
          <path class="cls-2" d="M711.06,134.79c-71.17-2.83-142.78-4.26-212.91-4.26s-140.67,1.43-209.79,4.26V68.73c68.7-5.03,139.06-7.58,209.14-7.58s141.95,2.55,213.55,7.59v66.05Z"/>
          <path class="cls-8" d="M497.51,63.53c69.34,0,140.36,2.5,211.17,7.43v61.35c-70.38-2.77-141.18-4.17-210.52-4.17s-139.05,1.4-207.4,4.16v-61.36c67.94-4.92,137.48-7.41,206.76-7.41m0-4.77c-70.8,0-141.3,2.55-211.53,7.75v70.76c70.38-2.92,141.11-4.36,212.17-4.36s143.19,1.46,215.29,4.36V66.51c-72.26-5.13-144.25-7.75-215.94-7.75h0Z"/>
        </g>
        <g>
          <path class="cls-8" d="M364.82,117.04v-32.91c0-.3,.24-.55,.54-.57,2.21-.14,3.53-.22,5.79-.36,.21-.01,.42,.09,.53,.27,5.09,8.01,7.85,12.36,12.69,20,.3,.48,1.05,.27,1.05-.3v-20.24c0-.3,.25-.55,.55-.57,2.01-.11,3.24-.17,5.23-.27,.33-.02,.61,.24,.61,.57v32.91c0,.3-.25,.55-.55,.57-2.29,.12-3.65,.19-6,.31-.2,.01-.41-.09-.52-.27-5.01-7.84-7.73-12.09-12.48-19.5-.31-.48-1.05-.27-1.05,.3v19.73c0,.3-.24,.55-.54,.57-2.01,.12-3.24,.2-5.22,.32-.33,.02-.61-.24-.61-.57Z"/>
          <path class="cls-8" d="M435.71,114.36c-2.34,.07-3.8,.11-6.25,.2-.24,0-.48-.15-.56-.37-1.04-2.68-1.63-4.19-2.67-6.86-.09-.23-.32-.38-.56-.37-5.04,.17-7.76,.28-12.8,.48-.23,0-.45,.17-.53,.39-.99,2.78-1.55,4.33-2.54,7.11-.08,.22-.3,.38-.53,.39-2.37,.1-3.78,.16-6.03,.26-.41,.02-.7-.4-.56-.78,5.05-13.2,7.7-20.11,12.81-33.43,.08-.21,.3-.36,.52-.37,2.52-.1,3.96-.15,6.47-.24,.24,0,.47,.14,.56,.36,5.25,12.92,7.97,19.63,13.17,32.46,.15,.37-.11,.78-.51,.79Zm-12.12-13.83c-1.51-4.02-2.42-6.43-3.86-10.26-.19-.5-.89-.49-1.07,0-1.42,3.95-2.31,6.43-3.79,10.55-.14,.38,.15,.78,.56,.77,2.92-.12,4.72-.18,7.65-.29,.39-.01,.65-.41,.51-.78Z"/>
          <path class="cls-8" d="M446.84,113.48v-32.91c0-.31,.26-.56,.56-.57,3.6-.09,5.64-.13,9.27-.21,.26,0,.51,.18,.57,.43,2.2,8.24,3.43,12.81,5.51,20.59,.15,.56,.96,.56,1.1,0,2.06-7.86,3.27-12.47,5.45-20.8,.06-.25,.3-.43,.55-.43,3.64-.05,5.69-.08,9.29-.11,.32,0,.58,.25,.58,.57v32.91c0,.31-.26,.57-.57,.57-2,.02-3.23,.03-5.23,.06-.32,0-.58-.25-.58-.57v-21.63c0-.67-.96-.78-1.12-.13-1.98,7.88-3.29,13.1-5.53,22-.06,.25-.3,.44-.56,.44-2.21,.03-3.51,.06-5.71,.1-.26,0-.51-.18-.58-.44-2.22-8.81-3.53-13.98-5.5-21.78-.16-.65-1.12-.54-1.12,.13v21.67c0,.31-.26,.56-.57,.57-2,.04-3.24,.07-5.23,.12-.32,0-.59-.25-.59-.57Z"/>
          <path class="cls-8" d="M523.19,113.54c-2.33-.03-3.78-.04-6.23-.06-.23,0-.46-.16-.54-.38-1.05-2.74-1.64-4.27-2.69-7.01-.08-.22-.31-.37-.54-.38-5.05-.03-7.76-.04-12.81-.04-.24,0-.47,.16-.55,.38-.99,2.72-1.54,4.25-2.53,6.97-.08,.22-.31,.38-.55,.38-2.37,0-3.79,0-6.05,.02-.4,0-.68-.41-.53-.79,5.06-13,7.71-19.8,12.81-32.91,.09-.22,.31-.37,.55-.37,2.52,0,3.96,0,6.48,.02,.23,0,.45,.15,.54,.37,5.25,13.14,7.98,19.96,13.17,32.99,.15,.38-.13,.8-.53,.79Zm-12.1-14.34c-1.51-4.07-2.42-6.52-3.87-10.42-.18-.5-.89-.49-1.07,0-1.42,3.89-2.31,6.33-3.79,10.39-.14,.37,.14,.77,.53,.77,2.93,0,4.73,0,7.66,.03,.4,0,.67-.4,.54-.77Z"/>
          <path class="cls-8" d="M533.32,102.54c2.12-.17,3.42-.28,5.57-.45,.28-.02,.55,.18,.61,.46,.43,2,1.21,3.5,2.35,4.5,1.23,1.08,2.89,1.64,4.98,1.68,2.21,.05,3.88-.38,5.01-1.29,1.12-.91,1.68-1.99,1.68-3.25,0-.8-.24-1.5-.71-2.07-.47-.58-1.3-1.09-2.47-1.53-.8-.3-2.64-.84-5.51-1.61-3.69-.99-6.27-2.16-7.76-3.52-2.09-1.91-3.14-4.21-3.14-6.9,0-1.73,.49-3.35,1.47-4.84,.98-1.49,2.4-2.62,4.25-3.37,1.85-.76,4.09-1.11,6.7-1.05,4.27,.09,7.49,1.11,9.65,3.04,2.02,1.8,3.14,4.13,3.37,6.99,.03,.33-.25,.61-.58,.62-2.2,.04-3.54,.06-5.78,.1-.27,0-.52-.19-.57-.46-.32-1.51-.93-2.63-1.8-3.35-.97-.79-2.42-1.21-4.36-1.25-1.73-.04-3.14,.24-4.22,.84-.97,.54-1.67,1.58-1.54,2.69,.08,.68,.41,1.27,1.01,1.79,.87,.74,2.97,1.54,6.32,2.41,3.35,.87,5.82,1.74,7.42,2.63,1.6,.89,2.86,2.07,3.76,3.56,.91,1.49,1.36,3.31,1.36,5.46,0,1.95-.54,3.76-1.63,5.44-1.08,1.67-2.62,2.9-4.6,3.67-1.98,.78-4.45,1.13-7.41,1.07-4.31-.09-7.61-1.15-9.92-3.18-2.18-1.92-3.54-4.64-4.06-8.16-.05-.33,.21-.63,.53-.66Z"/>
          <path class="cls-8" d="M580.6,114.38c0-10.76,0-16.41,0-27.17,0-.31-.25-.57-.56-.58-3.5-.13-5.49-.2-8.99-.32-.31-.01-.56-.27-.56-.58,0-1.75,0-2.86,0-4.6,0-.32,.28-.59,.6-.58,10.25,.34,15.65,.55,25.9,1.02,.3,.01,.55,.28,.55,.58,0,1.76,0,2.86,0,4.6,0,.32-.28,.59-.6,.58-3.44-.16-5.43-.24-8.87-.38-.32-.01-.6,.26-.6,.58,0,10.72,0,16.36,0,27.08,0,.32-.28,.59-.6,.58-2.18-.09-3.52-.14-5.71-.22-.31-.01-.56-.27-.56-.58Z"/>
          <path class="cls-8" d="M608.73,115.63c0-13.05,0-19.85,0-32.89,0-.33,.28-.59,.61-.58,9.51,.48,14.55,.77,24.08,1.37,.3,.02,.54,.28,.54,.58,0,1.76,0,2.86,0,4.6,0,.33-.29,.6-.61,.58-6.74-.42-10.39-.63-17.13-1-.33-.02-.61,.25-.61,.58,0,2.45,0,3.92,0,6.39,0,.3,.25,.56,.55,.58,6.29,.34,9.69,.54,15.98,.93,.3,.02,.55,.28,.55,.58,0,1.75,0,2.85,0,4.58,0,.33-.29,.6-.62,.58-6.23-.39-9.62-.58-15.85-.92-.33-.02-.61,.25-.61,.58,0,3.14,0,4.96,0,8.11,0,.3,.25,.56,.55,.58,7.06,.38,10.85,.6,17.91,1.05,.3,.02,.54,.28,.54,.58,0,1.75,0,2.85,0,4.58,0,.33-.29,.6-.62,.58-9.76-.61-14.93-.91-24.71-1.4-.3-.02-.55-.28-.55-.58Z"/>
        </g>
        <g>
          <g>
            <polygon class="cls-3" points="286.42 68.38 328.9 65.92 286.48 69.33 286.42 68.38 286.42 68.38"/>
            <polygon class="cls-3" points="286.42 71.67 320.29 69.8 286.48 72.62 286.42 71.67 286.42 71.67"/>
            <polygon class="cls-3" points="286.42 74.96 325.96 72.7 286.48 75.91 286.42 74.96 286.42 74.96"/>
            <polygon class="cls-3" points="286.42 78.25 333.31 75.48 286.48 79.2 286.42 78.25 286.42 78.25"/>
            <polygon class="cls-3" points="286.42 81.54 328.9 79.08 286.48 82.49 286.42 81.54 286.42 81.54"/>
            <polygon class="cls-3" points="286.42 84.83 320.29 82.96 286.48 85.78 286.42 84.83 286.42 84.83"/>
            <polygon class="cls-3" points="286.42 88.12 325.96 85.86 286.48 89.07 286.42 88.12 286.42 88.12"/>
            <polygon class="cls-3" points="286.42 91.41 333.31 88.64 286.48 92.36 286.42 91.41 286.42 91.41"/>
            <polygon class="cls-3" points="286.42 94.7 328.9 92.23 286.48 95.65 286.42 94.7 286.42 94.7"/>
            <polygon class="cls-3" points="286.42 97.99 320.29 96.12 286.48 98.94 286.42 97.99 286.42 97.99"/>
            <polygon class="cls-3" points="286.42 101.28 325.96 99.02 286.48 102.23 286.42 101.28 286.42 101.28"/>
            <polygon class="cls-3" points="286.42 104.57 333.31 101.8 286.48 105.52 286.42 104.57 286.42 104.57"/>
            <polygon class="cls-3" points="286.42 108.06 328.9 105.6 286.48 109.01 286.42 108.06 286.42 108.06"/>
            <polygon class="cls-3" points="286.42 111.35 320.29 109.48 286.48 112.3 286.42 111.35 286.42 111.35"/>
            <polygon class="cls-3" points="286.42 114.64 325.96 112.38 286.48 115.59 286.42 114.64 286.42 114.64"/>
            <polygon class="cls-3" points="286.42 117.93 333.31 115.16 286.48 118.88 286.42 117.93 286.42 117.93"/>
            <polygon class="cls-3" points="286.42 121.22 328.9 118.76 286.48 122.17 286.42 121.22 286.42 121.22"/>
            <polygon class="cls-3" points="286.42 124.51 320.29 122.64 286.48 125.46 286.42 124.51 286.42 124.51"/>
            <polygon class="cls-3" points="286.42 127.8 325.96 125.54 286.48 128.75 286.42 127.8 286.42 127.8"/>
            <polygon class="cls-3" points="286.42 131.09 333.31 128.32 286.48 132.04 286.42 131.09 286.42 131.09"/>
            <polygon class="cls-3" points="286.42 134.38 328.9 131.92 286.48 135.33 286.42 134.38 286.42 134.38"/>
          </g>
          <g>
            <polygon class="cls-4" points="286.42 66.46 335.1 63.99 286.48 67.41 286.42 66.46 286.42 66.46"/>
            <polygon class="cls-4" points="286.42 69.75 325.22 67.88 286.48 70.7 286.42 69.75 286.42 69.75"/>
            <polygon class="cls-4" points="286.42 73.04 331.73 70.78 286.48 73.99 286.42 73.04 286.42 73.04"/>
            <polygon class="cls-4" points="286.42 76.33 340.15 73.56 286.48 77.28 286.42 76.33 286.42 76.33"/>
            <polygon class="cls-4" points="286.42 79.62 335.1 77.15 286.48 80.57 286.42 79.62 286.42 79.62"/>
            <polygon class="cls-4" points="286.42 82.91 325.22 81.04 286.48 83.86 286.42 82.91 286.42 82.91"/>
            <polygon class="cls-4" points="286.42 86.2 331.73 83.94 286.48 87.15 286.42 86.2 286.42 86.2"/>
            <polygon class="cls-4" points="286.42 89.49 340.15 86.72 286.48 90.44 286.42 89.49 286.42 89.49"/>
            <polygon class="cls-4" points="286.42 92.78 335.1 90.31 286.48 93.73 286.42 92.78 286.42 92.78"/>
            <polygon class="cls-4" points="286.42 96.07 325.22 94.2 286.48 97.02 286.42 96.07 286.42 96.07"/>
            <polygon class="cls-4" points="286.42 99.36 331.73 97.1 286.48 100.31 286.42 99.36 286.42 99.36"/>
            <polygon class="cls-4" points="286.42 102.65 340.15 99.88 286.48 103.6 286.42 102.65 286.42 102.65"/>
            <polygon class="cls-4" points="286.42 106.14 335.1 103.68 286.48 107.09 286.42 106.14 286.42 106.14"/>
            <polygon class="cls-4" points="286.42 109.43 325.22 107.56 286.48 110.38 286.42 109.43 286.42 109.43"/>
            <polygon class="cls-4" points="286.42 112.72 331.73 110.46 286.48 113.67 286.42 112.72 286.42 112.72"/>
            <polygon class="cls-4" points="286.42 116.01 340.15 113.24 286.48 116.96 286.42 116.01 286.42 116.01"/>
            <polygon class="cls-4" points="286.42 119.3 335.1 116.83 286.48 120.25 286.42 119.3 286.42 119.3"/>
            <polygon class="cls-4" points="286.42 122.59 325.22 120.72 286.48 123.54 286.42 122.59 286.42 122.59"/>
            <polygon class="cls-4" points="286.42 125.88 331.73 123.62 286.48 126.83 286.42 125.88 286.42 125.88"/>
            <polygon class="cls-4" points="286.42 129.17 340.15 126.4 286.48 130.12 286.42 129.17 286.42 129.17"/>
            <polygon class="cls-4" points="286.42 132.46 335.1 129.99 286.48 133.41 286.42 132.46 286.42 132.46"/>
          </g>
        </g>
        <g>
          <g>
            <polygon class="cls-3" points="286.42 68.38 328.9 65.92 286.48 69.33 286.42 68.38 286.42 68.38"/>
            <polygon class="cls-3" points="286.42 71.67 320.29 69.8 286.48 72.62 286.42 71.67 286.42 71.67"/>
            <polygon class="cls-3" points="286.42 74.96 325.96 72.7 286.48 75.91 286.42 74.96 286.42 74.96"/>
            <polygon class="cls-3" points="286.42 78.25 333.31 75.48 286.48 79.2 286.42 78.25 286.42 78.25"/>
            <polygon class="cls-3" points="286.42 81.54 328.9 79.08 286.48 82.49 286.42 81.54 286.42 81.54"/>
            <polygon class="cls-3" points="286.42 84.83 320.29 82.96 286.48 85.78 286.42 84.83 286.42 84.83"/>
            <polygon class="cls-3" points="286.42 88.12 325.96 85.86 286.48 89.07 286.42 88.12 286.42 88.12"/>
            <polygon class="cls-3" points="286.42 91.41 333.31 88.64 286.48 92.36 286.42 91.41 286.42 91.41"/>
            <polygon class="cls-3" points="286.42 94.7 328.9 92.23 286.48 95.65 286.42 94.7 286.42 94.7"/>
            <polygon class="cls-3" points="286.42 97.99 320.29 96.12 286.48 98.94 286.42 97.99 286.42 97.99"/>
            <polygon class="cls-3" points="286.42 101.28 325.96 99.02 286.48 102.23 286.42 101.28 286.42 101.28"/>
            <polygon class="cls-3" points="286.42 104.57 333.31 101.8 286.48 105.52 286.42 104.57 286.42 104.57"/>
            <polygon class="cls-3" points="286.42 108.06 328.9 105.6 286.48 109.01 286.42 108.06 286.42 108.06"/>
            <polygon class="cls-3" points="286.42 111.35 320.29 109.48 286.48 112.3 286.42 111.35 286.42 111.35"/>
            <polygon class="cls-3" points="286.42 114.64 325.96 112.38 286.48 115.59 286.42 114.64 286.42 114.64"/>
            <polygon class="cls-3" points="286.42 117.93 333.31 115.16 286.48 118.88 286.42 117.93 286.42 117.93"/>
            <polygon class="cls-3" points="286.42 121.22 328.9 118.76 286.48 122.17 286.42 121.22 286.42 121.22"/>
            <polygon class="cls-3" points="286.42 124.51 320.29 122.64 286.48 125.46 286.42 124.51 286.42 124.51"/>
            <polygon class="cls-3" points="286.42 127.8 325.96 125.54 286.48 128.75 286.42 127.8 286.42 127.8"/>
            <polygon class="cls-3" points="286.42 131.09 333.31 128.32 286.48 132.04 286.42 131.09 286.42 131.09"/>
            <polygon class="cls-3" points="286.42 134.38 328.9 131.92 286.48 135.33 286.42 134.38 286.42 134.38"/>
          </g>
          <g>
            <polygon class="cls-4" points="286.42 66.46 335.1 63.99 286.48 67.41 286.42 66.46 286.42 66.46"/>
            <polygon class="cls-4" points="286.42 69.75 325.22 67.88 286.48 70.7 286.42 69.75 286.42 69.75"/>
            <polygon class="cls-4" points="286.42 73.04 331.73 70.78 286.48 73.99 286.42 73.04 286.42 73.04"/>
            <polygon class="cls-4" points="286.42 76.33 340.15 73.56 286.48 77.28 286.42 76.33 286.42 76.33"/>
            <polygon class="cls-4" points="286.42 79.62 335.1 77.15 286.48 80.57 286.42 79.62 286.42 79.62"/>
            <polygon class="cls-4" points="286.42 82.91 325.22 81.04 286.48 83.86 286.42 82.91 286.42 82.91"/>
            <polygon class="cls-4" points="286.42 86.2 331.73 83.94 286.48 87.15 286.42 86.2 286.42 86.2"/>
            <polygon class="cls-4" points="286.42 89.49 340.15 86.72 286.48 90.44 286.42 89.49 286.42 89.49"/>
            <polygon class="cls-4" points="286.42 92.78 335.1 90.31 286.48 93.73 286.42 92.78 286.42 92.78"/>
            <polygon class="cls-4" points="286.42 96.07 325.22 94.2 286.48 97.02 286.42 96.07 286.42 96.07"/>
            <polygon class="cls-4" points="286.42 99.36 331.73 97.1 286.48 100.31 286.42 99.36 286.42 99.36"/>
            <polygon class="cls-4" points="286.42 102.65 340.15 99.88 286.48 103.6 286.42 102.65 286.42 102.65"/>
            <polygon class="cls-4" points="286.42 106.14 335.1 103.68 286.48 107.09 286.42 106.14 286.42 106.14"/>
            <polygon class="cls-4" points="286.42 109.43 325.22 107.56 286.48 110.38 286.42 109.43 286.42 109.43"/>
            <polygon class="cls-4" points="286.42 112.72 331.73 110.46 286.48 113.67 286.42 112.72 286.42 112.72"/>
            <polygon class="cls-4" points="286.42 116.01 340.15 113.24 286.48 116.96 286.42 116.01 286.42 116.01"/>
            <polygon class="cls-4" points="286.42 119.3 335.1 116.83 286.48 120.25 286.42 119.3 286.42 119.3"/>
            <polygon class="cls-4" points="286.42 122.59 325.22 120.72 286.48 123.54 286.42 122.59 286.42 122.59"/>
            <polygon class="cls-4" points="286.42 125.88 331.73 123.62 286.48 126.83 286.42 125.88 286.42 125.88"/>
            <polygon class="cls-4" points="286.42 129.17 340.15 126.4 286.48 130.12 286.42 129.17 286.42 129.17"/>
            <polygon class="cls-4" points="286.42 132.46 335.1 129.99 286.48 133.41 286.42 132.46 286.42 132.46"/>
          </g>
        </g>
        <g>
          <g>
            <polygon class="cls-3" points="712.45 69.33 670.03 65.92 712.52 68.38 712.45 69.33 712.45 69.33"/>
            <polygon class="cls-3" points="712.45 72.62 678.65 69.8 712.52 71.67 712.45 72.62 712.45 72.62"/>
            <polygon class="cls-3" points="712.45 75.91 672.98 72.7 712.52 74.96 712.45 75.91 712.45 75.91"/>
            <polygon class="cls-3" points="712.45 79.2 665.62 75.48 712.52 78.25 712.45 79.2 712.45 79.2"/>
            <polygon class="cls-3" points="712.45 82.49 670.03 79.08 712.52 81.54 712.45 82.49 712.45 82.49"/>
            <polygon class="cls-3" points="712.45 85.78 678.65 82.96 712.52 84.83 712.45 85.78 712.45 85.78"/>
            <polygon class="cls-3" points="712.45 89.07 672.98 85.86 712.52 88.12 712.45 89.07 712.45 89.07"/>
            <polygon class="cls-3" points="712.45 92.36 665.62 88.64 712.52 91.41 712.45 92.36 712.45 92.36"/>
            <polygon class="cls-3" points="712.45 95.65 670.03 92.23 712.52 94.7 712.45 95.65 712.45 95.65"/>
            <polygon class="cls-3" points="712.45 98.94 678.65 96.12 712.52 97.99 712.45 98.94 712.45 98.94"/>
            <polygon class="cls-3" points="712.45 102.23 672.98 99.02 712.52 101.28 712.45 102.23 712.45 102.23"/>
            <polygon class="cls-3" points="712.45 105.52 665.62 101.8 712.52 104.57 712.45 105.52 712.45 105.52"/>
            <polygon class="cls-3" points="712.45 109.01 670.03 105.6 712.52 108.06 712.45 109.01 712.45 109.01"/>
            <polygon class="cls-3" points="712.45 112.3 678.65 109.48 712.52 111.35 712.45 112.3 712.45 112.3"/>
            <polygon class="cls-3" points="712.45 115.59 672.98 112.38 712.52 114.64 712.45 115.59 712.45 115.59"/>
            <polygon class="cls-3" points="712.45 118.88 665.62 115.16 712.52 117.93 712.45 118.88 712.45 118.88"/>
            <polygon class="cls-3" points="712.45 122.17 670.03 118.76 712.52 121.22 712.45 122.17 712.45 122.17"/>
            <polygon class="cls-3" points="712.45 125.46 678.65 122.64 712.52 124.51 712.45 125.46 712.45 125.46"/>
            <polygon class="cls-3" points="712.45 128.75 672.98 125.54 712.52 127.8 712.45 128.75 712.45 128.75"/>
            <polygon class="cls-3" points="712.45 132.04 665.62 128.32 712.52 131.09 712.45 132.04 712.45 132.04"/>
            <polygon class="cls-3" points="712.45 135.33 670.03 131.92 712.52 134.38 712.45 135.33 712.45 135.33"/>
          </g>
          <g>
            <polygon class="cls-4" points="712.46 67.41 663.84 63.99 712.51 66.46 712.46 67.41 712.46 67.41"/>
            <polygon class="cls-4" points="712.46 70.7 673.71 67.88 712.51 69.75 712.46 70.7 712.46 70.7"/>
            <polygon class="cls-4" points="712.46 73.99 667.21 70.78 712.51 73.04 712.46 73.99 712.46 73.99"/>
            <polygon class="cls-4" points="712.46 77.28 658.78 73.56 712.51 76.33 712.46 77.28 712.46 77.28"/>
            <polygon class="cls-4" points="712.46 80.57 663.84 77.15 712.51 79.62 712.46 80.57 712.46 80.57"/>
            <polygon class="cls-4" points="712.46 83.86 673.71 81.04 712.51 82.91 712.46 83.86 712.46 83.86"/>
            <polygon class="cls-4" points="712.46 87.15 667.21 83.94 712.51 86.2 712.46 87.15 712.46 87.15"/>
            <polygon class="cls-4" points="712.46 90.44 658.78 86.72 712.51 89.49 712.46 90.44 712.46 90.44"/>
            <polygon class="cls-4" points="712.46 93.73 663.84 90.31 712.51 92.78 712.46 93.73 712.46 93.73"/>
            <polygon class="cls-4" points="712.46 97.02 673.71 94.2 712.51 96.07 712.46 97.02 712.46 97.02"/>
            <polygon class="cls-4" points="712.46 100.31 667.21 97.1 712.51 99.36 712.46 100.31 712.46 100.31"/>
            <polygon class="cls-4" points="712.46 103.6 658.78 99.88 712.51 102.65 712.46 103.6 712.46 103.6"/>
            <polygon class="cls-4" points="712.46 107.09 663.84 103.68 712.51 106.14 712.46 107.09 712.46 107.09"/>
            <polygon class="cls-4" points="712.46 110.38 673.71 107.56 712.51 109.43 712.46 110.38 712.46 110.38"/>
            <polygon class="cls-4" points="712.46 113.67 667.21 110.46 712.51 112.72 712.46 113.67 712.46 113.67"/>
            <polygon class="cls-4" points="712.46 116.96 658.78 113.24 712.51 116.01 712.46 116.96 712.46 116.96"/>
            <polygon class="cls-4" points="712.46 120.25 663.84 116.83 712.51 119.3 712.46 120.25 712.46 120.25"/>
            <polygon class="cls-4" points="712.46 123.54 673.71 120.72 712.51 122.59 712.46 123.54 712.46 123.54"/>
            <polygon class="cls-4" points="712.46 126.83 667.21 123.62 712.51 125.88 712.46 126.83 712.46 126.83"/>
            <polygon class="cls-4" points="712.46 130.12 658.78 126.4 712.51 129.17 712.46 130.12 712.46 130.12"/>
            <polygon class="cls-4" points="712.46 133.41 663.84 129.99 712.51 132.46 712.46 133.41 712.46 133.41"/>
          </g>
        </g>
        <path class="cls-7" d="M285.98,138.7c-.37,0-.72-.14-.99-.4-.28-.27-.44-.64-.44-1.03V66.51c0-.75,.58-1.37,1.33-1.43,138.96-10.29,282.85-10.29,427.67,0,.75,.05,1.33,.68,1.33,1.43v70.76c0,.39-.16,.76-.44,1.03-.28,.27-.67,.42-1.05,.4-143.86-5.79-287.64-5.79-427.35,0-.02,0-.04,0-.06,0Zm212.18-7.2c70.94,0,142.38,1.43,213.85,4.28V67.85c-143.78-10.15-286.61-10.15-424.6,0v67.94c69.41-2.85,139.82-4.28,210.75-4.28Z"/>
      </g>
      <g>
        <path class="cls-1" d="M354.85,176.01c0-.33,.27-.6,.6-.6h9.49c2.28,0,4.01,.17,5.2,.52,1.6,.47,2.98,1.31,4.12,2.52,1.14,1.21,2.01,2.68,2.61,4.43,.6,1.75,.9,3.9,.9,6.46,0,2.25-.28,4.19-.84,5.82-.68,1.99-1.66,3.6-2.93,4.83-.96,.93-2.25,1.66-3.88,2.18-1.22,.39-2.85,.58-4.89,.58h-9.79c-.33,0-.6-.27-.6-.6v-26.15Zm5.52,4.63v16.91c0,.33,.27,.6,.6,.6h3.52c1.54,0,2.65-.09,3.34-.26,.9-.22,1.64-.6,2.23-1.14,.59-.53,1.07-1.41,1.45-2.64,.37-1.22,.56-2.89,.56-5.01s-.19-3.74-.56-4.87c-.37-1.13-.9-2.01-1.57-2.65-.67-.63-1.52-1.06-2.56-1.29-.77-.17-2.28-.26-4.53-.26h-1.88c-.33,0-.6,.27-.6,.6Z"/>
        <path class="cls-1" d="M387.88,202.16v-26.15c0-.33,.27-.6,.6-.6h19.08c.33,0,.6,.27,.6,.6v3.43c0,.33-.27,.6-.6,.6h-13.56c-.33,0-.6,.27-.6,.6v4.87c0,.33,.27,.6,.6,.6h12.53c.33,0,.6,.27,.6,.6v3.41c0,.33-.27,.6-.6,.6h-12.53c-.33,0-.6,.27-.6,.6v6.25c0,.33,.27,.6,.6,.6h14.08c.33,0,.6,.27,.6,.6v3.41c0,.33-.27,.6-.6,.6h-19.6c-.33,0-.6-.27-.6-.6Z"/>
        <path class="cls-1" d="M418.7,202.16v-26.15c0-.33,.27-.6,.6-.6h7.21c.27,0,.51,.18,.58,.44l4.26,16.02c.16,.59,1,.59,1.16,0l4.21-16.02c.07-.26,.31-.45,.58-.45h7.22c.33,0,.6,.27,.6,.6v26.15c0,.33-.27,.6-.6,.6h-3.93c-.33,0-.6-.27-.6-.6v-16.11c0-.7-1-.83-1.18-.15l-4.14,16.4c-.07,.27-.31,.45-.58,.45h-4.38c-.27,0-.51-.19-.58-.45l-4.12-16.39c-.17-.68-1.18-.56-1.18,.15v16.1c0,.33-.27,.6-.6,.6h-3.93c-.33,0-.6-.27-.6-.6Z"/>
        <path class="cls-1" d="M454.9,189.25c0-2.78,.42-5.12,1.25-7.01,.62-1.39,1.47-2.64,2.55-3.75,1.07-1.11,2.25-1.93,3.53-2.46,1.7-.72,3.67-1.08,5.89-1.08,4.03,0,7.25,1.25,9.67,3.75,2.42,2.5,3.63,5.98,3.63,10.43s-1.2,7.87-3.6,10.36c-2.4,2.49-5.61,3.74-9.62,3.74s-7.3-1.24-9.7-3.72c-2.4-2.48-3.6-5.9-3.6-10.25Zm5.69-.19c0,3.1,.71,5.44,2.14,7.04,1.43,1.6,3.24,2.4,5.45,2.4s4.01-.79,5.42-2.38c1.41-1.59,2.12-3.96,2.12-7.13s-.69-5.47-2.06-7.01c-1.37-1.54-3.2-2.31-5.47-2.31s-4.11,.78-5.5,2.34c-1.39,1.56-2.09,3.91-2.09,7.06Z"/>
        <path class="cls-1" d="M509.25,192.9l4.18,1.33c.31,.1,.5,.44,.4,.76-.83,2.69-2.14,4.72-3.92,6.07-1.91,1.45-4.33,2.17-7.27,2.17-3.63,0-6.61-1.24-8.95-3.72-2.34-2.48-3.51-5.87-3.51-10.17,0-4.55,1.17-8.09,3.52-10.6,2.35-2.52,5.44-3.78,9.27-3.78,3.34,0,6.06,.99,8.15,2.97,1.12,1.06,2,2.53,2.61,4.42,.11,.33-.1,.68-.43,.76l-4.32,1.03c-.29,.07-.58-.11-.67-.4-.36-1.17-.99-2.11-1.88-2.83-1.03-.82-2.27-1.23-3.74-1.23-2.03,0-3.67,.73-4.93,2.18-1.26,1.45-1.89,3.81-1.89,7.07,0,3.46,.62,5.92,1.87,7.39,1.24,1.47,2.86,2.2,4.85,2.2,1.47,0,2.73-.47,3.79-1.4,.94-.83,1.65-2.1,2.12-3.78,.09-.33,.43-.53,.76-.43Z"/>
        <path class="cls-1" d="M524.18,202.16v-26.15c0-.33,.27-.6,.6-.6h11.02c2.92,0,5.04,.25,6.37,.74,1.32,.49,2.38,1.36,3.18,2.62,.8,1.26,1.19,2.69,1.19,4.31,0,2.05-.6,3.75-1.81,5.08-.95,1.05-2.27,1.8-3.97,2.24-.51,.13-.63,.78-.21,1.08,.66,.47,1.23,.97,1.72,1.5,.78,.83,1.82,2.31,3.14,4.44l2.77,4.42c.25,.4-.04,.91-.51,.91h-5.2c-.2,0-.39-.1-.5-.26l-3.81-5.68c-1.42-2.13-2.39-3.47-2.91-4.02-.52-.55-1.08-.93-1.66-1.14-.58-.21-1.51-.31-2.78-.31h-1.12v10.82c0,.33-.27,.6-.6,.6h-4.32c-.33,0-.6-.27-.6-.6Zm5.52-15.78c0,.33,.27,.6,.6,.6h3.49c2.65,0,4.3-.11,4.96-.34s1.17-.61,1.55-1.16,.56-1.23,.56-2.05c0-.92-.25-1.66-.74-2.23-.49-.57-1.18-.92-2.08-1.07-.45-.06-1.79-.09-4.03-.09h-3.71c-.33,0-.6,.27-.6,.6v5.74Z"/>
        <path class="cls-1" d="M580.94,202.76h-4.71c-.25,0-.47-.15-.56-.38l-2.09-5.44c-.09-.23-.31-.38-.56-.38h-10.1c-.25,0-.48,.16-.56,.39l-1.97,5.42c-.09,.24-.31,.39-.56,.39h-4.56c-.42,0-.71-.42-.56-.81l10.18-26.15c.09-.23,.31-.38,.56-.38h5.03c.24,0,.46,.15,.55,.38l10.47,26.15c.16,.39-.13,.82-.55,.82Zm-9.58-11.62l-2.9-7.82c-.19-.52-.93-.52-1.12,0l-2.85,7.82c-.14,.39,.15,.8,.56,.8h5.75c.42,0,.7-.42,.56-.81Z"/>
        <path class="cls-1" d="M608.27,192.9l4.18,1.33c.31,.1,.5,.44,.4,.76-.83,2.69-2.14,4.72-3.92,6.07-1.91,1.45-4.33,2.17-7.27,2.17-3.63,0-6.61-1.24-8.95-3.72-2.34-2.48-3.51-5.87-3.51-10.17,0-4.55,1.17-8.09,3.52-10.6,2.35-2.52,5.44-3.78,9.27-3.78,3.34,0,6.06,.99,8.15,2.97,1.12,1.06,2,2.53,2.61,4.42,.11,.33-.1,.68-.43,.76l-4.32,1.03c-.29,.07-.58-.11-.67-.4-.36-1.17-.99-2.11-1.88-2.83-1.03-.82-2.27-1.23-3.74-1.23-2.03,0-3.67,.73-4.93,2.18-1.26,1.45-1.89,3.81-1.89,7.07,0,3.46,.62,5.92,1.87,7.39,1.24,1.47,2.86,2.2,4.85,2.2,1.47,0,2.73-.47,3.79-1.4,.94-.83,1.65-2.1,2.12-3.78,.09-.33,.43-.53,.76-.43Z"/>
        <path class="cls-1" d="M630.36,202.16v-10.74c0-.11-.03-.22-.09-.32l-9.34-14.77c-.25-.4,.03-.92,.5-.92h5.05c.21,0,.41,.11,.51,.29l5.74,9.65c.23,.39,.8,.39,1.03,0l5.62-9.64c.11-.18,.3-.3,.52-.3h4.93c.47,0,.76,.52,.5,.92l-9.38,14.81c-.06,.1-.09,.21-.09,.32v10.7c0,.33-.27,.6-.6,.6h-4.31c-.33,0-.6-.27-.6-.6Z"/>
      </g>
    </g>
    <g>
      <path class="cls-1" d="M321.54,237v-16.52h4.61c2.21,0,3.84,.29,4.91,.87,1.67,.9,2.51,2.32,2.51,4.27s-.77,3.27-2.31,4.2c-1.1,.65-2.9,.98-5.41,.98h-1.42v6.21h-2.9Zm2.9-8.63h1.64c1.69,0,2.83-.17,3.42-.52,.78-.46,1.16-1.17,1.16-2.15,0-1.03-.45-1.77-1.35-2.21-.58-.29-1.67-.43-3.29-.43h-1.6v5.32Z"/>
      <path class="cls-1" d="M349.91,234.8c-1.63,1.63-3.65,2.44-6.07,2.44s-4.44-.81-6.07-2.44c-1.63-1.63-2.44-3.65-2.44-6.07s.81-4.44,2.44-6.07c1.63-1.63,3.65-2.44,6.07-2.44s4.44,.81,6.07,2.44c1.63,1.63,2.44,3.65,2.44,6.07s-.81,4.44-2.44,6.07Zm-10.08-1.89c1.07,1.13,2.41,1.69,4.01,1.69s2.93-.56,4.01-1.69c1.07-1.13,1.61-2.52,1.61-4.18s-.54-3.05-1.61-4.18c-1.07-1.13-2.41-1.69-4.01-1.69s-2.93,.56-4.01,1.69c-1.07,1.13-1.61,2.52-1.61,4.18s.54,3.05,1.61,4.18Z"/>
      <path class="cls-1" d="M355.11,237v-16.52h2.9v13.94h7.51v2.58h-10.41Z"/>
      <path class="cls-1" d="M367.91,237v-16.52h2.9v16.52h-2.9Z"/>
      <path class="cls-1" d="M378.53,237v-13.94h-5.41v-2.58h13.76v2.58h-5.45v13.94h-2.9Z"/>
      <path class="cls-1" d="M389.21,237v-16.52h2.9v16.52h-2.9Z"/>
      <path class="cls-1" d="M397.35,234.83c-1.66-1.61-2.49-3.63-2.49-6.05s.82-4.45,2.47-6.09c1.64-1.64,3.76-2.47,6.34-2.47,1.69,0,3.23,.37,4.61,1.1v3.01c-1.38-.99-2.92-1.48-4.61-1.48s-3.15,.56-4.26,1.68c-1.1,1.12-1.66,2.52-1.66,4.21s.56,3.09,1.68,4.2c1.12,1.11,2.58,1.67,4.39,1.67s3.3-.53,4.7-1.6v3.06c-1.35,.79-2.97,1.19-4.84,1.19-2.57,0-4.69-.81-6.34-2.42Z"/>
      <path class="cls-1" d="M419.47,220.47l6.76,16.52h-3.08l-1.58-4.04h-7.12l-1.6,4.04h-2.99l6.78-16.52h2.83Zm-3.13,7.62l-.96,2.49h5.25l-.96-2.49c-.64-1.66-1.19-3.13-1.64-4.43h-.05c-.53,1.51-1.08,2.98-1.64,4.43Z"/>
      <path class="cls-1" d="M428.23,237v-16.52h2.9v13.94h7.51v2.58h-10.41Z"/>
      <path class="cls-1" d="M446.74,237v-16.52h2.9v13.94h7.51v2.58h-10.41Z"/>
      <path class="cls-1" d="M459.55,237v-16.52h2.9v16.52h-2.9Z"/>
      <path class="cls-1" d="M470.16,237v-13.94h-5.41v-2.58h13.76v2.58h-5.45v13.94h-2.9Z"/>
      <path class="cls-1" d="M480.84,237v-16.52h9.86v2.58h-6.96v4.11h6.05v2.47h-6.05v4.79h7.19v2.58h-10.09Z"/>
      <path class="cls-1" d="M493.76,237v-16.52h4.82c2.08,0,3.63,.27,4.63,.82,1.58,.85,2.37,2.19,2.37,4.02,0,1.13-.32,2.09-.97,2.9-.65,.81-1.55,1.36-2.7,1.64l4.98,7.14h-3.4l-4.61-6.82h-2.21v6.82h-2.9Zm2.9-9.06h2.31c1.31,0,2.27-.22,2.88-.66,.56-.41,.85-1,.85-1.78,0-.9-.4-1.56-1.19-1.99-.58-.3-1.61-.46-3.08-.46h-1.76v4.88Z"/>
      <path class="cls-1" d="M517.13,220.47l6.76,16.52h-3.08l-1.58-4.04h-7.12l-1.6,4.04h-2.99l6.78-16.52h2.83Zm-3.13,7.62l-.96,2.49h5.25l-.96-2.49c-.64-1.66-1.19-3.13-1.64-4.43h-.05c-.53,1.51-1.08,2.98-1.64,4.43Z"/>
      <path class="cls-1" d="M526.92,234.83c-1.66-1.61-2.49-3.63-2.49-6.05s.82-4.45,2.47-6.09c1.64-1.64,3.76-2.47,6.34-2.47,1.69,0,3.23,.37,4.61,1.1v3.01c-1.38-.99-2.92-1.48-4.61-1.48s-3.15,.56-4.26,1.68c-1.1,1.12-1.66,2.52-1.66,4.21s.56,3.09,1.68,4.2c1.12,1.11,2.58,1.67,4.39,1.67s3.3-.53,4.7-1.6v3.06c-1.35,.79-2.97,1.19-4.84,1.19-2.57,0-4.69-.81-6.34-2.42Z"/>
      <path class="cls-1" d="M545.59,237v-7.46l-6.39-9.06h3.38l2.4,3.49c.85,1.25,1.54,2.28,2.08,3.1h.05c.65-1,1.35-2.05,2.1-3.15l2.35-3.45h3.26l-6.32,9.04v7.49h-2.9Z"/>
      <path class="cls-1" d="M562.29,237v-16.52h10.11v2.58h-7.21v4.43h6.28v2.47h-6.28v7.05h-2.9Z"/>
      <path class="cls-1" d="M589.07,234.8c-1.63,1.63-3.65,2.44-6.07,2.44s-4.44-.81-6.07-2.44c-1.63-1.63-2.44-3.65-2.44-6.07s.81-4.44,2.44-6.07c1.63-1.63,3.65-2.44,6.07-2.44s4.44,.81,6.07,2.44c1.63,1.63,2.44,3.65,2.44,6.07s-.81,4.44-2.44,6.07Zm-10.08-1.89c1.07,1.13,2.41,1.69,4.01,1.69s2.93-.56,4.01-1.69c1.07-1.13,1.61-2.52,1.61-4.18s-.54-3.05-1.61-4.18c-1.07-1.13-2.41-1.69-4.01-1.69s-2.93,.56-4.01,1.69c-1.07,1.13-1.61,2.52-1.61,4.18s.54,3.05,1.61,4.18Z"/>
      <path class="cls-1" d="M594.27,237v-16.52h4.82c2.08,0,3.63,.27,4.63,.82,1.58,.85,2.37,2.19,2.37,4.02,0,1.13-.32,2.09-.97,2.9-.65,.81-1.55,1.36-2.7,1.64l4.98,7.14h-3.4l-4.61-6.82h-2.21v6.82h-2.9Zm2.9-9.06h2.31c1.31,0,2.27-.22,2.88-.66,.56-.41,.85-1,.85-1.78,0-.9-.4-1.56-1.19-1.99-.58-.3-1.61-.46-3.08-.46h-1.76v4.88Z"/>
      <path class="cls-1" d="M615.04,237v-16.52h2.9v16.52h-2.9Z"/>
      <path class="cls-1" d="M624.3,237h-2.81v-16.52h2.74l5.98,7.97c1,1.34,1.99,2.67,2.94,3.99l.05-.02c-.03-1.03-.05-2.7-.05-5v-6.94h2.81v16.52h-2.74l-5.98-7.97c-1-1.34-1.99-2.67-2.94-3.99l-.05,.02c.03,1.04,.05,2.7,.05,5v6.94Z"/>
      <path class="cls-1" d="M639.55,237v-16.52h4.59c2.71,0,4.84,.5,6.39,1.51,1.1,.7,1.94,1.64,2.53,2.81,.59,1.17,.89,2.47,.89,3.9,0,1.34-.26,2.57-.79,3.7-.52,1.13-1.27,2.05-2.22,2.76-1.63,1.23-4.02,1.85-7.17,1.85h-4.22Zm2.9-2.58h1.58c2.19,0,3.83-.4,4.91-1.19,1.42-1.03,2.12-2.54,2.12-4.52,0-1-.21-1.9-.62-2.69-.41-.79-.97-1.43-1.67-1.92-1.02-.7-2.61-1.05-4.77-1.05h-1.55v11.37Z"/>
      <path class="cls-1" d="M656.64,237v-16.52h2.9v16.52h-2.9Z"/>
      <path class="cls-1" d="M671.14,220.47l6.76,16.52h-3.08l-1.58-4.04h-7.12l-1.6,4.04h-2.99l6.78-16.52h2.83Zm-3.13,7.62l-.96,2.49h5.25l-.96-2.49c-.64-1.66-1.19-3.13-1.64-4.43h-.05c-.53,1.51-1.08,2.98-1.64,4.43Z"/>
    </g>
  </g>
</svg>